<svg width="32" height="32" viewBox="0 0 32 32" fill="none" xmlns="http://www.w3.org/2000/svg">
<g id="icon-smartphone">
<g id="Shape">
<path d="M16.0002 22.6667C15.2638 22.6667 14.6668 23.2637 14.6668 24C14.6668 24.7364 15.2638 25.3334 16.0002 25.3334H16.0135C16.7499 25.3334 17.3468 24.7364 17.3468 24C17.3468 23.2637 16.7499 22.6667 16.0135 22.6667H16.0002Z" fill="#292F36"/>
<path fill-rule="evenodd" clip-rule="evenodd" d="M9.3335 1.33337C7.12436 1.33337 5.3335 3.12423 5.3335 5.33337V26.6667C5.3335 28.8758 7.12436 30.6667 9.3335 30.6667H22.6668C24.876 30.6667 26.6668 28.8758 26.6668 26.6667V5.33337C26.6668 3.12423 24.876 1.33337 22.6668 1.33337H9.3335ZM8.00016 5.33337C8.00016 4.59699 8.59712 4.00004 9.3335 4.00004H22.6668C23.4032 4.00004 24.0002 4.59699 24.0002 5.33337V26.6667C24.0002 27.4031 23.4032 28 22.6668 28H9.3335C8.59712 28 8.00016 27.4031 8.00016 26.6667V5.33337Z" fill="#292F36"/>
</g>
</g>
</svg>
