<svg width="14" height="14" viewBox="0 0 14 14" fill="none" xmlns="http://www.w3.org/2000/svg">
<g id="icon-briefcase">
<path id="Shape" fill-rule="evenodd" clip-rule="evenodd" d="M5.8335 1.16675C5.36937 1.16675 4.92425 1.35112 4.59606 1.67931C4.26787 2.0075 4.0835 2.45262 4.0835 2.91675V3.50008H2.3335C1.367 3.50008 0.583496 4.28358 0.583496 5.25008V11.0834C0.583496 12.0499 1.367 12.8334 2.3335 12.8334H11.6668C12.6333 12.8334 13.4168 12.0499 13.4168 11.0834V5.25008C13.4168 4.28358 12.6333 3.50008 11.6668 3.50008H9.91683V2.91675C9.91683 2.45262 9.73246 2.0075 9.40427 1.67931C9.07608 1.35112 8.63096 1.16675 8.16683 1.16675H5.8335ZM8.75016 3.50008V2.91675C8.75016 2.76204 8.68871 2.61367 8.57931 2.50427C8.46991 2.39487 8.32154 2.33341 8.16683 2.33341H5.8335C5.67879 2.33341 5.53041 2.39487 5.42102 2.50427C5.31162 2.61367 5.25016 2.76204 5.25016 2.91675V3.50008H8.75016ZM5.25016 4.66675H8.75016V11.6667H5.25016V4.66675ZM4.0835 4.66675H2.3335C2.01133 4.66675 1.75016 4.92792 1.75016 5.25008V11.0834C1.75016 11.4056 2.01133 11.6667 2.3335 11.6667H4.0835V4.66675ZM9.91683 11.6667V4.66675H11.6668C11.989 4.66675 12.2502 4.92792 12.2502 5.25008V11.0834C12.2502 11.4056 11.989 11.6667 11.6668 11.6667H9.91683Z" fill="#12F7D6"/>
</g>
</svg>
