<svg width="20" height="20" viewBox="0 0 20 20" fill="none" xmlns="http://www.w3.org/2000/svg">
<g id="icon-instagram" clip-path="url(#clip0_1_3170)">
<g id="Shape">
<path fill-rule="evenodd" clip-rule="evenodd" d="M8.11713 6.26543C8.89505 5.86179 9.78043 5.71371 10.6474 5.84226C11.5317 5.97339 12.3503 6.38545 12.9825 7.01758C13.6146 7.64971 14.0266 8.46838 14.1578 9.35268C14.2863 10.2196 14.1383 11.105 13.7346 11.8829C13.331 12.6608 12.6923 13.2916 11.9095 13.6857C11.1266 14.0797 10.2395 14.2168 9.37422 14.0776C8.50895 13.9384 7.70961 13.5298 7.0899 12.9101C6.47019 12.2904 6.06166 11.4911 5.92243 10.6258C5.78319 9.76055 5.92034 8.8734 6.31436 8.09057C6.70839 7.30773 7.33922 6.66908 8.11713 6.26543ZM10.4029 7.4909C9.88273 7.41377 9.3515 7.50262 8.88475 7.7448C8.418 7.98699 8.0395 8.37018 7.80309 8.83989C7.56668 9.30959 7.48439 9.84187 7.56793 10.361C7.65147 10.8802 7.89658 11.3598 8.26841 11.7316C8.64024 12.1035 9.11984 12.3486 9.639 12.4321C10.1582 12.5156 10.6905 12.4334 11.1602 12.1969C11.6299 11.9605 12.013 11.582 12.2552 11.1153C12.4974 10.6485 12.5863 10.1173 12.5091 9.59715C12.4305 9.06657 12.1832 8.57537 11.8039 8.19609C11.4247 7.81682 10.9335 7.56958 10.4029 7.4909Z" fill="#12F7D6"/>
<path d="M14.5835 4.58325C14.1233 4.58325 13.7502 4.95635 13.7502 5.41658C13.7502 5.87682 14.1233 6.24992 14.5835 6.24992H14.5918C15.0521 6.24992 15.4252 5.87682 15.4252 5.41658C15.4252 4.95635 15.0521 4.58325 14.5918 4.58325H14.5835Z" fill="#12F7D6"/>
<path fill-rule="evenodd" clip-rule="evenodd" d="M0.833496 5.83325C0.833496 3.07183 3.07207 0.833252 5.8335 0.833252H14.1668C16.9283 0.833252 19.1668 3.07183 19.1668 5.83325V14.1666C19.1668 16.928 16.9283 19.1666 14.1668 19.1666H5.8335C3.07207 19.1666 0.833496 16.928 0.833496 14.1666V5.83325ZM5.8335 2.49992C3.99255 2.49992 2.50016 3.9923 2.50016 5.83325V14.1666C2.50016 16.0075 3.99255 17.4999 5.8335 17.4999H14.1668C16.0078 17.4999 17.5002 16.0075 17.5002 14.1666V5.83325C17.5002 3.9923 16.0078 2.49992 14.1668 2.49992H5.8335Z" fill="#12F7D6"/>
</g>
</g>
<defs>
<clipPath id="clip0_1_3170">
<rect width="20" height="20" fill="white"/>
</clipPath>
</defs>
</svg>
