<svg width="32" height="32" viewBox="0 0 32 32" fill="none" xmlns="http://www.w3.org/2000/svg">
<g id="icon-monitor">
<path id="Shape" fill-rule="evenodd" clip-rule="evenodd" d="M17.3335 24H26.6668C28.876 24 30.6668 22.2091 30.6668 20V6.66663C30.6668 4.45749 28.876 2.66663 26.6668 2.66663H5.3335C3.12436 2.66663 1.3335 4.45749 1.3335 6.66663V20C1.3335 22.2091 3.12436 24 5.3335 24H14.6668V26.6666H10.6668C9.93045 26.6666 9.3335 27.2636 9.3335 28C9.3335 28.7363 9.93045 29.3333 10.6668 29.3333H21.3335C22.0699 29.3333 22.6668 28.7363 22.6668 28C22.6668 27.2636 22.0699 26.6666 21.3335 26.6666H17.3335V24ZM5.3335 5.33329C4.59712 5.33329 4.00016 5.93025 4.00016 6.66663V20C4.00016 20.7363 4.59712 21.3333 5.3335 21.3333H26.6668C27.4032 21.3333 28.0002 20.7363 28.0002 20V6.66663C28.0002 5.93025 27.4032 5.33329 26.6668 5.33329H5.3335Z" fill="#292F36"/>
</g>
</svg>
